<svg width="74" height="81" viewBox="0 0 74 81" fill="none" xmlns="http://www.w3.org/2000/svg">
<path d="M35.4789 20.2817L5.52106 2.65944C3.52116 1.48303 1 2.925 1 5.24524V57.1077C1 58.1708 1.56263 59.1545 2.47894 59.6935L35.4789 79.1053C36.4178 79.6575 37.5822 79.6575 38.5211 79.1053L71.5211 59.6935C72.4374 59.1545 73 58.1708 73 57.1077V5.24525C73 2.925 70.4788 1.48303 68.4789 2.65945L38.5211 20.2817C37.5822 20.834 36.4178 20.834 35.4789 20.2817Z" fill="#DD463D" stroke="#050038"/>
<path d="M37 32C30.275 32 25 35.075 25 39V51C25 54.925 30.275 58 37 58C43.725 58 49 54.925 49 51V39C49 35.075 43.725 32 37 32ZM47 45C47 46.2 46.0125 47.425 44.3 48.3625C42.3625 49.425 39.775 50 37 50C34.225 50 31.6375 49.425 29.7 48.3625C27.9875 47.425 27 46.2 27 45V42.925C29.1375 44.7875 32.775 46 37 46C41.225 46 44.8625 44.7875 47 42.925V45ZM44.3 54.3625C42.3625 55.425 39.775 56 37 56C34.225 56 31.6375 55.425 29.7 54.3625C27.9875 53.425 27 52.2 27 51V48.925C29.1375 50.7875 32.775 52 37 52C41.225 52 44.8625 50.7875 47 48.925V51C47 52.2 46.0125 53.425 44.3 54.3625Z" fill="white"/>
</svg>
