<svg width="29" height="28" viewBox="0 0 29 28" fill="none" xmlns="http://www.w3.org/2000/svg">
<path d="M14.9883 2.625C12.7385 2.625 10.5393 3.29213 8.66867 4.54203C6.79807 5.79193 5.3401 7.56847 4.47916 9.64698C3.61821 11.7255 3.39295 14.0126 3.83185 16.2192C4.27076 18.4257 5.35412 20.4525 6.94495 22.0433C8.53577 23.6342 10.5626 24.7175 12.7691 25.1564C14.9757 25.5953 17.2628 25.3701 19.3413 24.5091C21.4198 23.6482 23.1964 22.1902 24.4463 20.3196C25.6962 18.449 26.3633 16.2498 26.3633 14C26.3575 10.9849 25.1572 8.09502 23.0252 5.96305C20.8933 3.83107 18.0033 2.63078 14.9883 2.625V2.625ZM20.4023 12.0094L13.993 18.1344C13.8273 18.2902 13.608 18.3764 13.3805 18.375C13.2693 18.3766 13.1589 18.3561 13.0556 18.3149C12.9524 18.2736 12.8583 18.2122 12.7789 18.1344L9.57422 15.0719C9.48534 14.9943 9.41305 14.8996 9.3617 14.7934C9.31036 14.6872 9.28102 14.5717 9.27544 14.4539C9.26987 14.3361 9.28817 14.2183 9.32926 14.1077C9.37035 13.9972 9.43338 13.8961 9.51454 13.8105C9.59571 13.7249 9.69335 13.6566 9.80158 13.6097C9.90982 13.5628 10.0264 13.5382 10.1444 13.5376C10.2623 13.5369 10.3792 13.56 10.488 13.6057C10.5968 13.6513 10.6952 13.7185 10.7773 13.8031L13.3805 16.2859L19.1992 10.7406C19.3694 10.5922 19.5903 10.5153 19.8158 10.5259C20.0413 10.5366 20.254 10.634 20.4094 10.7979C20.5647 10.9617 20.6508 11.1793 20.6494 11.405C20.6481 11.6308 20.5596 11.8474 20.4023 12.0094Z" fill="#050038"/>
</svg>
