<svg width="74" height="81" viewBox="0 0 74 81" fill="none" xmlns="http://www.w3.org/2000/svg">
<path d="M35.4789 20.2817L5.52106 2.65944C3.52116 1.48303 1 2.925 1 5.24524V57.1077C1 58.1708 1.56263 59.1545 2.47894 59.6935L35.4789 79.1053C36.4178 79.6575 37.5822 79.6575 38.5211 79.1053L71.5211 59.6935C72.4374 59.1545 73 58.1708 73 57.1077V5.24525C73 2.925 70.4788 1.48303 68.4789 2.65945L38.5211 20.2817C37.5822 20.834 36.4178 20.834 35.4789 20.2817Z" fill="#DD463D" stroke="#050038"/>
<path d="M49.4684 44.3218C48.7017 44.2038 47.994 44.7641 47.876 45.5013C47.5811 47.7425 46.549 49.7773 44.9566 51.3697C41.7128 54.6135 36.847 55.2328 32.9839 53.257L31.0671 55.4097C33.1019 56.5893 35.4021 57.1791 37.6727 57.1791C41.0345 57.1791 44.3963 55.911 46.9323 53.3455C48.9671 51.3107 50.2351 48.7451 50.648 45.8847C50.7659 45.1475 50.2351 44.4397 49.4684 44.3218Z" fill="white"/>
<path d="M49.4685 32.5556C48.7018 32.5556 48.0825 33.1748 48.0825 33.971V35.9468L46.9619 34.8262C41.8603 29.7246 33.5443 29.7246 28.4132 34.8262C26.8208 36.4186 25.7297 38.3354 25.1399 40.3407C25.6707 39.9574 26.3195 39.7509 26.9977 39.7509H28.3542C28.8555 38.6893 29.5338 37.6867 30.4185 36.802C34.429 32.7915 40.9756 32.7915 44.9862 36.802L46.0773 37.9226H44.1015C43.3348 37.9226 42.686 38.5419 42.686 39.3086C42.686 40.0753 43.3053 40.7241 44.1015 40.7241H49.4685C50.2352 40.7241 50.884 40.1048 50.884 39.3086V33.9416C50.884 33.1748 50.2352 32.5556 49.4685 32.5556Z" fill="white"/>
<path d="M37.643 36.802C36.8763 36.802 36.2275 37.4213 36.2275 38.2175V44.0858C36.2275 44.7051 36.6404 45.2654 37.2597 45.4423L41.5651 46.6514C41.683 46.6809 41.8305 46.7104 41.9485 46.7104C42.5677 46.7104 43.128 46.2975 43.305 45.6783C43.5114 44.941 43.069 44.1743 42.3318 43.9384L39.029 43.0242V38.2175C39.029 37.4508 38.4097 36.802 37.643 36.802Z" fill="white"/>
<path d="M32.0108 48.6567H29.6516L32.6005 43.4076C32.8954 42.9063 32.5121 42.2575 31.9223 42.2575H26.9976C26.6732 42.2575 26.3783 42.4639 26.2898 42.7588L23.046 51.4287C22.8691 51.93 23.223 52.4608 23.7538 52.4608H25.4641L23.6358 58.1522C23.4294 58.8305 24.2551 59.3023 24.7269 58.7715L32.571 49.9247C33.0134 49.4529 32.6595 48.6567 32.0108 48.6567Z" fill="white"/>
</svg>
