<svg width="74" height="81" viewBox="0 0 74 81" fill="none" xmlns="http://www.w3.org/2000/svg">
<path d="M35.4789 20.2817L5.52106 2.65944C3.52116 1.48303 1 2.925 1 5.24524V57.1077C1 58.1708 1.56263 59.1545 2.47894 59.6935L35.4789 79.1053C36.4178 79.6575 37.5822 79.6575 38.5211 79.1053L71.5211 59.6935C72.4374 59.1545 73 58.1708 73 57.1077V5.24525C73 2.925 70.4788 1.48303 68.4789 2.65945L38.5211 20.2817C37.5822 20.834 36.4178 20.834 35.4789 20.2817Z" fill="#DD463D" stroke="#050038"/>
<path fill-rule="evenodd" clip-rule="evenodd" d="M37.0411 61C36.87 61.0001 36.7024 60.9517 36.5576 60.8605L28.3196 55.6724C26.179 54.3246 25 51.933 25 48.9383V35.8396C25 35.686 25.039 35.5349 25.1133 35.4005C25.1877 35.2661 25.2949 35.1527 25.425 35.0711C29.8751 32.2788 33.1975 31.062 36.5343 31.0022C40.0555 30.9394 43.7886 32.1903 48.637 35.0588C48.7726 35.139 48.885 35.2532 48.9631 35.3902C49.0412 35.5271 49.0823 35.682 49.0823 35.8396V48.9383C49.0823 51.9323 47.9027 54.3239 45.7609 55.6724L37.5246 60.8604C37.3799 60.9516 37.2122 61 37.0411 61ZM36.8173 48.7773L42.4029 43.1945C42.5422 43.0561 42.6529 42.8915 42.7285 42.7103C42.8041 42.529 42.8432 42.3346 42.8435 42.1382C42.8439 41.9418 42.8054 41.7473 42.7305 41.5658C42.6555 41.3842 42.5454 41.2193 42.4066 41.0804C42.2678 40.9415 42.1029 40.8313 41.9214 40.7562C41.7399 40.6812 41.5454 40.6426 41.349 40.6429C41.1526 40.6431 40.9582 40.6821 40.7769 40.7576C40.5955 40.8331 40.4309 40.9436 40.2924 41.0829L35.7618 45.6112L33.9764 43.8275C33.8377 43.689 33.6731 43.5791 33.4919 43.5042C33.3108 43.4292 33.1166 43.3907 32.9206 43.3908C32.5247 43.391 32.1451 43.5485 31.8652 43.8286C31.7267 43.9672 31.6168 44.1319 31.5419 44.313C31.4669 44.4942 31.4284 44.6883 31.4285 44.8843C31.4287 45.2802 31.5862 45.6599 31.8663 45.9397L34.707 48.7776C34.987 49.0573 35.3665 49.2143 35.7622 49.2143C36.1579 49.2142 36.5374 49.0571 36.8173 48.7773Z" fill="white"/>
</svg>
