<svg width="138" height="38" viewBox="0 0 138 38" fill="none" xmlns="http://www.w3.org/2000/svg">
<path d="M12.426 34V13.591C12.426 8.293 16.719 4 22.017 4V24.409C22.017 29.707 17.724 34 12.426 34Z" fill="black"/>
<path d="M0 24.4092H9.591V34.0002C4.293 34.0002 0 29.7072 0 24.4092Z" fill="black"/>
<path d="M35.343 8.62305H37.749V21.304C37.749 22.423 37.575 23.338 37.224 24.049C36.873 24.76 36.435 25.318 35.907 25.729C35.382 26.137 34.818 26.422 34.215 26.581C33.612 26.74 33.063 26.818 32.562 26.818C31.308 26.818 30.252 26.4971 29.391 25.8521C28.53 25.2101 27.984 24.235 27.75 22.933L30.105 22.408C30.24 23.077 30.513 23.602 30.933 23.986C31.35 24.37 31.893 24.562 32.562 24.562C33.165 24.562 33.645 24.445 34.002 24.211C34.362 23.977 34.641 23.671 34.842 23.296C35.043 22.921 35.175 22.489 35.244 22.006C35.31 21.523 35.343 21.028 35.343 20.527V8.62305Z" fill="black"/>
<path d="M40.959 10.2277C40.959 9.77771 41.121 9.38771 41.448 9.06371C41.775 8.73671 42.162 8.57471 42.612 8.57471C43.062 8.57471 43.452 8.73671 43.776 9.06371C44.103 9.39071 44.265 9.77771 44.265 10.2277C44.265 10.6777 44.103 11.0677 43.776 11.3917C43.449 11.7187 43.062 11.8807 42.612 11.8807C42.162 11.8807 41.772 11.7187 41.448 11.3917C41.121 11.0677 40.959 10.6777 40.959 10.2277ZM41.484 14.4877H43.74V26.3647H41.484V14.4877Z" fill="black"/>
<path d="M59.226 26.2656C59.226 27.1686 59.07 27.9906 58.761 28.7346C58.452 29.4786 58.014 30.1206 57.444 30.6636C56.877 31.2066 56.19 31.6296 55.389 31.9296C54.588 32.2296 53.7 32.3796 52.734 32.3796C51.597 32.3796 50.559 32.2206 49.614 31.9026C48.669 31.5846 47.772 31.0326 46.92 30.2496L48.45 28.3446C49.035 28.9806 49.668 29.4606 50.355 29.7846C51.039 30.1116 51.816 30.2736 52.686 30.2736C53.52 30.2736 54.216 30.1536 54.765 29.9106C55.317 29.6676 55.755 29.3556 56.082 28.9716C56.409 28.5876 56.637 28.1496 56.772 27.6546C56.907 27.1626 56.973 26.6646 56.973 26.1636V24.4086H56.898C56.463 25.1286 55.875 25.6566 55.131 25.9986C54.387 26.3406 53.607 26.5116 52.788 26.5116C51.918 26.5116 51.114 26.3586 50.37 26.0466C49.626 25.7376 48.987 25.3116 48.453 24.7686C47.919 24.2256 47.502 23.5836 47.199 22.8396C46.899 22.0956 46.749 21.2886 46.749 20.4216C46.749 19.5516 46.89 18.7386 47.175 17.9796C47.46 17.2206 47.865 16.5546 48.39 15.9876C48.915 15.4206 49.551 14.9766 50.295 14.6586C51.039 14.3406 51.87 14.1816 52.788 14.1816C53.589 14.1816 54.372 14.3556 55.131 14.7066C55.89 15.0576 56.487 15.5496 56.922 16.1856H56.973V14.4816H59.229V26.2656H59.226ZM53.061 16.2906C52.458 16.2906 51.915 16.3956 51.432 16.6026C50.946 16.8126 50.538 17.0946 50.205 17.4546C49.872 17.8146 49.611 18.2496 49.428 18.7566C49.245 19.2666 49.152 19.8216 49.152 20.4246C49.152 21.6276 49.503 22.5936 50.205 23.3196C50.907 24.0456 51.858 24.4086 53.061 24.4086C54.264 24.4086 55.215 24.0456 55.917 23.3196C56.619 22.5936 56.97 21.6276 56.97 20.4246C56.97 19.8216 56.877 19.2666 56.694 18.7566C56.511 18.2466 56.25 17.8116 55.917 17.4546C55.584 17.0946 55.173 16.8126 54.69 16.6026C54.204 16.3956 53.661 16.2906 53.061 16.2906Z" fill="black"/>
<path d="M68.9489 17.4701C68.6819 17.1371 68.3519 16.8551 67.9589 16.6301C67.5659 16.4051 67.0859 16.2911 66.5189 16.2911C65.9849 16.2911 65.5199 16.4051 65.1269 16.6301C64.7339 16.8551 64.5389 17.1851 64.5389 17.6201C64.5389 17.9711 64.6529 18.2561 64.8779 18.4721C65.1029 18.6881 65.3699 18.8651 65.6789 18.9971C65.9879 19.1321 66.3179 19.2311 66.6689 19.2971C67.0199 19.3631 67.3199 19.4231 67.5719 19.4711C68.0549 19.5881 68.5109 19.7291 68.9369 19.8971C69.3629 20.0651 69.7289 20.2811 70.0379 20.5481C70.3469 20.8151 70.5899 21.1421 70.7639 21.5261C70.9379 21.9101 71.0279 22.3781 71.0279 22.9301C71.0279 23.5991 70.8869 24.1691 70.6019 24.6461C70.3169 25.1231 69.9509 25.5101 69.5009 25.8101C69.0509 26.1101 68.5349 26.3291 67.9589 26.4611C67.3829 26.5961 66.8009 26.6621 66.2159 26.6621C65.2289 26.6621 64.3649 26.5121 63.6209 26.2121C62.8769 25.9121 62.2139 25.3601 61.6289 24.5591L63.3329 23.1551C63.6989 23.5241 64.1099 23.8481 64.5599 24.1331C65.0099 24.4181 65.5619 24.5591 66.2129 24.5591C66.4979 24.5591 66.7859 24.5291 67.0769 24.4721C67.3679 24.4151 67.6289 24.3221 67.8539 24.1961C68.0789 24.0701 68.2619 23.9111 68.4059 23.7191C68.5469 23.5271 68.6189 23.3051 68.6189 23.0561C68.6189 22.7231 68.5139 22.4471 68.3069 22.2281C68.0969 22.0121 67.8479 21.8411 67.5539 21.7151C67.2629 21.5891 66.9509 21.4901 66.6269 21.4151C66.3029 21.3401 66.0119 21.2771 65.7629 21.2261C65.2769 21.1091 64.8179 20.9741 64.3859 20.8241C63.9509 20.6741 63.5669 20.4731 63.2339 20.2241C62.8979 19.9721 62.6309 19.6571 62.4329 19.2731C62.2319 18.8891 62.1329 18.4121 62.1329 17.8451C62.1329 17.2271 62.2619 16.6871 62.5199 16.2281C62.7779 15.7691 63.1229 15.3881 63.5489 15.0881C63.9749 14.7881 64.4579 14.5631 65.0009 14.4101C65.5439 14.2601 66.0899 14.1851 66.6419 14.1851C67.4429 14.1851 68.2109 14.3351 68.9489 14.6351C69.6839 14.9351 70.2689 15.4361 70.7039 16.1381L68.9489 17.4701Z" fill="black"/>
<path d="M73.809 15.9401C74.445 15.3551 75.18 14.9171 76.014 14.6231C76.848 14.3321 77.685 14.1851 78.519 14.1851C79.389 14.1851 80.136 14.2931 80.763 14.5121C81.39 14.7281 81.903 15.0221 82.305 15.3881C82.707 15.7571 83.001 16.1771 83.196 16.6541C83.388 17.1311 83.484 17.6261 83.484 18.1451V24.2081C83.484 24.6251 83.493 25.0091 83.508 25.3601C83.523 25.7111 83.55 26.0441 83.583 26.3621H81.579C81.528 25.7591 81.504 25.1591 81.504 24.5591H81.453C80.952 25.3271 80.358 25.8701 79.674 26.1881C78.99 26.5061 78.195 26.6651 77.292 26.6651C76.74 26.6651 76.215 26.5901 75.714 26.4401C75.213 26.2901 74.775 26.0651 74.397 25.7621C74.022 25.4621 73.725 25.0901 73.506 24.6461C73.29 24.2051 73.179 23.6891 73.179 23.1041C73.179 22.3361 73.35 21.6911 73.692 21.1751C74.034 20.6561 74.502 20.2361 75.096 19.9091C75.69 19.5821 76.383 19.3481 77.175 19.2071C77.967 19.0661 78.816 18.9941 79.719 18.9941H81.372V18.4931C81.372 18.1931 81.312 17.8931 81.198 17.5901C81.081 17.2901 80.907 17.0171 80.673 16.7771C80.439 16.5341 80.148 16.3421 79.797 16.2011C79.446 16.0601 79.029 15.9881 78.543 15.9881C78.108 15.9881 77.73 16.0301 77.403 16.1141C77.076 16.1981 76.779 16.3031 76.512 16.4261C76.245 16.5521 76.002 16.6991 75.786 16.8641C75.57 17.0321 75.36 17.1911 75.159 17.3411L73.809 15.9401ZM80.175 20.6531C79.641 20.6531 79.092 20.6831 78.534 20.7401C77.973 20.8001 77.466 20.9111 77.004 21.0791C76.545 21.2471 76.17 21.4811 75.876 21.7811C75.585 22.0811 75.438 22.4651 75.438 22.9331C75.438 23.6171 75.669 24.1121 76.128 24.4121C76.587 24.7121 77.208 24.8621 77.994 24.8621C78.612 24.8621 79.137 24.7571 79.572 24.5501C80.007 24.3401 80.358 24.0701 80.625 23.7371C80.892 23.4041 81.084 23.0321 81.201 22.6211C81.318 22.2131 81.375 21.8081 81.375 21.4061V20.6531H80.175Z" fill="black"/>
<path d="M85.3379 14.4878H87.8699L90.5369 23.3588H90.5879L93.4319 14.4878H95.8379L98.8439 23.3588H98.8949L101.427 14.4878H103.833L99.9989 26.3648H97.7189L94.5719 17.4938H94.5209L91.6529 26.3648H89.2469L85.3379 14.4878Z" fill="black"/>
<path d="M105.96 7.41992H108.216V26.3649H105.96V7.41992Z" fill="black"/>
<path d="M111.849 15.9401C112.485 15.3551 113.22 14.9171 114.054 14.6231C114.888 14.3321 115.725 14.1851 116.559 14.1851C117.429 14.1851 118.176 14.2931 118.803 14.5121C119.43 14.7281 119.943 15.0221 120.345 15.3881C120.747 15.7571 121.041 16.1771 121.236 16.6541C121.428 17.1311 121.524 17.6261 121.524 18.1451V24.2081C121.524 24.6251 121.533 25.0091 121.548 25.3601C121.563 25.7111 121.59 26.0441 121.623 26.3621H119.619C119.568 25.7591 119.544 25.1591 119.544 24.5591H119.493C118.992 25.3271 118.398 25.8701 117.714 26.1881C117.03 26.5061 116.235 26.6651 115.332 26.6651C114.78 26.6651 114.255 26.5901 113.754 26.4401C113.253 26.2901 112.815 26.0651 112.437 25.7621C112.062 25.4621 111.765 25.0901 111.546 24.6461C111.33 24.2051 111.219 23.6891 111.219 23.1041C111.219 22.3361 111.39 21.6911 111.732 21.1751C112.074 20.6561 112.542 20.2361 113.136 19.9091C113.73 19.5821 114.423 19.3481 115.215 19.2071C116.007 19.0661 116.856 18.9941 117.759 18.9941H119.412V18.4931C119.412 18.1931 119.352 17.8931 119.238 17.5901C119.121 17.2901 118.947 17.0171 118.713 16.7771C118.479 16.5341 118.188 16.3421 117.837 16.2011C117.486 16.0601 117.069 15.9881 116.583 15.9881C116.148 15.9881 115.77 16.0301 115.443 16.1141C115.116 16.1981 114.819 16.3031 114.552 16.4261C114.285 16.5521 114.042 16.6991 113.826 16.8641C113.61 17.0321 113.4 17.1911 113.199 17.3411L111.849 15.9401ZM118.215 20.6531C117.681 20.6531 117.132 20.6831 116.574 20.7401C116.013 20.8001 115.506 20.9111 115.044 21.0791C114.585 21.2471 114.21 21.4811 113.916 21.7811C113.625 22.0811 113.478 22.4651 113.478 22.9331C113.478 23.6171 113.709 24.1121 114.168 24.4121C114.627 24.7121 115.248 24.8621 116.034 24.8621C116.652 24.8621 117.177 24.7571 117.612 24.5501C118.047 24.3401 118.398 24.0701 118.665 23.7371C118.932 23.4041 119.124 23.0321 119.241 22.6211C119.358 22.2131 119.415 21.8081 119.415 21.4061V20.6531H118.215Z" fill="black"/>
<path d="M124.806 7.41992H127.062V16.1919H127.113C127.515 15.5739 128.091 15.0849 128.841 14.7249C129.594 14.3649 130.395 14.1849 131.247 14.1849C132.165 14.1849 132.996 14.3439 133.74 14.6619C134.484 14.9799 135.117 15.4179 135.645 15.9789C136.17 16.5399 136.575 17.1999 136.86 17.9589C137.145 18.7179 137.286 19.5429 137.286 20.4279C137.286 21.3129 137.145 22.1319 136.86 22.8849C136.575 23.6379 136.17 24.2979 135.645 24.8649C135.12 25.4319 134.484 25.8759 133.74 26.1939C132.996 26.5119 132.165 26.6709 131.247 26.6709C130.446 26.6709 129.663 26.4969 128.904 26.1459C128.142 25.7949 127.545 25.3029 127.113 24.6669H127.062V26.3709H124.806V7.41992ZM130.968 24.5619C131.568 24.5619 132.111 24.4569 132.597 24.2499C133.08 24.0399 133.491 23.7579 133.824 23.3979C134.157 23.0379 134.418 22.6059 134.601 22.0959C134.784 21.5859 134.877 21.0309 134.877 20.4279C134.877 19.8249 134.784 19.2699 134.601 18.7599C134.418 18.2499 134.157 17.8149 133.824 17.4579C133.491 17.0979 133.08 16.8159 132.597 16.6059C132.111 16.3959 131.568 16.2939 130.968 16.2939C130.365 16.2939 129.822 16.3989 129.339 16.6059C128.853 16.8159 128.445 17.0979 128.112 17.4579C127.779 17.8179 127.518 18.2529 127.335 18.7599C127.152 19.2699 127.059 19.8249 127.059 20.4279C127.059 21.0309 127.152 21.5859 127.335 22.0959C127.518 22.6059 127.776 23.0409 128.112 23.3979C128.445 23.7579 128.856 24.0399 129.339 24.2499C129.825 24.4569 130.368 24.5619 130.968 24.5619Z" fill="black"/>
</svg>
