<svg width="135" height="38" viewBox="0 0 135 38" fill="none" xmlns="http://www.w3.org/2000/svg">
<g clip-path="url(#clip0_2383_1297)">
<path d="M49.1466 10.7078L49.1529 10.789L49.1565 10.846L49.1623 10.9675L49.1684 11.1424L49.1606 11.9127L49.1439 12.5325C50.3258 11.9009 51.6542 11.5315 53.0666 11.4953L53.221 11.4927L53.3422 11.4917L53.3595 11.4928L53.455 11.4938C54.9532 11.5207 56.3951 11.9251 57.7058 12.7339L57.8457 12.8221L58.0574 12.9622C58.2399 13.0866 58.417 13.22 58.5878 13.3617C58.6432 12.4577 58.7104 11.5962 58.7883 10.8002C58.9038 9.62116 59.4475 8.55925 60.2767 7.77433L60.335 7.72002L60.3959 7.66573C60.7496 7.33809 61.0531 7.10654 61.3064 6.97107C61.5456 6.84314 61.8923 6.71942 62.3465 6.59993L62.4278 6.57889L62.4668 6.56836L62.5388 6.55046L62.6115 6.53347L62.7591 6.50224C63.0719 6.44238 63.3921 6.41095 63.7037 6.41095C65.094 6.41095 66.4161 6.99092 67.3442 7.98944L67.3963 8.0464L67.4652 8.12475L67.5497 8.02282C68.3902 7.04027 69.6179 6.39257 70.9884 6.30067L71.0691 6.29591L71.1615 6.29206L71.2077 6.29094L71.3533 6.28941C73.8704 6.28941 76.0069 8.16397 76.252 10.69L76.2588 10.7668L76.2775 10.9841C76.3236 11.54 76.362 12.1909 76.3927 12.917C77.7632 12.1419 79.3669 11.7358 81.0074 11.7935C83.278 11.8734 85.425 12.9285 86.8696 14.5507C88.3811 12.894 90.5929 11.8642 92.9466 11.7813C95.0047 11.7089 97.0169 12.4429 98.5323 13.7104C99.3669 12.7462 100.577 12.1117 101.929 12.0164C102.62 11.9677 103.306 12.0624 103.944 12.2864L104.035 12.3193L104.099 12.3438L104.216 12.3055C104.654 12.1678 105.108 12.0705 105.578 12.0186L105.706 12.0056L105.861 11.993C108.781 11.7873 111.37 13.0072 112.838 15.3677C113.228 15.9996 113.462 16.7284 113.513 17.4748C113.642 19.3343 112.684 21.1456 111.026 22.0844L110.962 22.12L110.909 22.1492L110.855 22.176C110.244 22.4769 109.602 22.6635 108.929 22.7109C108.449 22.7448 107.971 22.7087 107.511 22.6077L107.413 22.5851L107.343 22.5675L107.37 22.944C107.448 23.9947 107.547 25.026 107.642 25.8202L107.654 25.9183L107.678 26.1108L107.717 26.3404L107.726 26.4786C107.899 28.9723 106.114 31.1337 103.682 31.5713L103.608 31.584L103.385 31.6175L103.15 31.634C101.276 31.7661 99.5287 30.8447 98.5957 29.3291C97.1478 30.591 95.265 31.3674 93.2815 31.4372C90.7321 31.5269 88.2832 30.3554 86.7375 28.4644C85.1 30.3812 82.5848 31.5167 79.9808 31.425C78.1945 31.3622 76.5004 30.6852 75.1608 29.5993C74.4421 30.4907 73.4126 31.1275 72.2343 31.3529L72.1519 31.368L72.0588 31.3841L71.7913 31.4121L71.7198 31.4186C71.5787 31.4305 71.4424 31.4371 71.2968 31.4371C69.8397 31.4371 68.4626 30.8045 67.5276 29.72L67.477 29.6604L67.4729 29.6552L67.3806 29.7623C66.647 30.5867 65.6348 31.1674 64.4873 31.3629L64.4031 31.3765L64.3062 31.3903L64.0249 31.4236H63.6613C62.0815 31.4236 60.6396 30.6821 59.7275 29.5047C59.1152 30.2325 58.298 30.7965 57.3472 31.1077C56.1027 31.5138 54.8574 31.7262 53.6427 31.7262C51.763 31.7262 49.9706 31.2343 48.4556 30.2867C48.3266 30.4078 48.1894 30.5233 48.0441 30.6326C47.2389 31.243 46.2964 31.5951 45.3152 31.6833L45.2202 31.691L45.1621 31.6947L45.0748 31.6994L44.8914 31.7064L44.7082 31.7035C43.3247 31.6622 41.9894 31.0959 41.0256 30.0547C40.0438 31.2051 38.5653 31.9065 36.9569 31.8708L36.8736 31.8683L36.8228 31.8659L36.7026 31.859L36.4866 31.8426C34.9255 31.7089 33.5037 31.2359 32.2911 30.3068L32.2087 30.2428L32.1816 30.2211C31.8995 29.9934 31.6399 29.7469 31.4028 29.4848C30.5107 30.7785 29.0377 31.6401 27.3705 31.7201L27.2883 31.7234L27.2375 31.7246L27.1172 31.7262L26.9006 31.725C25.334 31.7013 23.8829 31.3294 22.6089 30.4878L22.5223 30.4297L22.4937 30.41C22.0712 30.1151 21.6914 29.7794 21.3549 29.4113C20.511 30.6739 19.1129 31.5451 17.5064 31.703L17.4111 31.7115L17.1884 31.7262H16.9613C15.979 31.7262 15.0479 31.4561 14.2516 30.9819C13.7508 31.219 13.2064 31.3804 12.6344 31.4509L12.5269 31.4631L12.4769 31.4678L12.3433 31.4787L6.23142 31.8824C3.50231 32.0414 1.03557 30.0899 0.729829 27.318C0.569188 25.8267 0.418742 24.1764 0.298304 22.5404L0.276079 22.2339L0.257271 21.9666L0.222551 21.4514C-0.0330498 17.5436 -0.0810266 14.1214 0.144355 11.5852L0.15566 11.4611L0.189107 11.1269C0.446023 8.68444 2.34499 6.83201 4.75831 6.52322L4.8316 6.51433L4.95663 6.5016L5.04739 6.49397L5.21702 6.48481C7.01418 6.41633 8.66489 7.26061 9.65811 8.6221L9.65308 8.61897L9.70925 8.6546C11.3515 9.6772 12.3953 8.87254 12.6436 8.46666L12.7207 8.34455L12.7352 8.32275C12.9467 8.05952 13.1946 7.78303 13.4789 7.49328C13.7632 7.20353 13.9814 7.00491 14.1337 6.89743L14.1783 6.86698C14.9468 6.3525 15.8439 6.05213 16.7827 6.00646L16.911 6.00182L17.0343 6.00035C18.8547 6.00035 20.4596 6.94629 21.3813 8.38028C22.1573 7.72843 23.1274 7.29925 24.1857 7.1853L24.2793 7.17607L24.3768 7.16824L24.5828 7.15657H24.7383C27.4879 7.15657 29.8142 9.26919 29.9579 12.0271L29.9616 12.1109L29.9631 12.1684L29.9654 12.3022C30.0902 12.2302 30.2181 12.1631 30.3489 12.1014L30.4476 12.056L30.4659 12.0478L30.4994 11.8284L30.5361 11.5921L30.5409 11.5586C30.9018 9.07135 33.0222 7.2537 35.4962 7.17123L35.5713 7.16926L35.6691 7.1683L35.8754 7.17114L36.0304 7.18207C37.3235 7.27318 38.4902 7.82601 39.3574 8.67428C40.1708 7.22088 41.6839 6.20348 43.4027 6.02867L43.4835 6.0211L43.6276 6.01088L43.7456 6.00521L43.8977 6.00074C46.6114 5.95505 48.9153 8.03442 49.1466 10.7078Z" fill="black"/>
<path d="M5.26489 9.67295L5.31333 9.67013C6.44325 9.61672 7.3909 10.4356 7.46283 11.472C7.47115 11.5918 7.46541 11.7127 7.44562 11.8345C7.18109 14.1283 7.32244 18.2001 7.57568 21.8492L7.79972 24.6705L11.8774 24.41C13.0159 24.3298 13.9904 25.1444 14.0653 26.2231C14.1402 27.3019 13.2586 28.2339 12.1342 28.3131L6.04664 28.7152C4.94945 28.7792 3.97859 28.0178 3.86433 26.982C3.70553 25.5077 3.53582 23.6728 3.40273 21.7551L3.38586 21.5085C3.14707 17.9669 3.03991 14.1311 3.32446 11.4691C3.42657 10.4984 4.20867 9.76075 5.26185 9.67316L5.26489 9.67295Z" fill="white"/>
<path d="M53.2942 14.6719C54.284 14.6719 55.2876 14.9237 56.2356 15.5597C57.1835 16.1826 58.0477 17.4017 58.0477 18.8064C58.0477 19.8798 57.6295 21.3905 56.3052 22.4904C55.3016 23.3385 53.9076 23.8686 52.0815 24.0806C52.1372 24.1336 52.179 24.1999 52.2209 24.2396C52.5415 24.5179 52.9039 24.7167 53.5033 24.7167C53.8936 24.7167 54.3815 24.6239 55.0228 24.4119C55.2458 24.3324 55.4828 24.2927 55.7198 24.2927C56.5562 24.2927 57.3507 24.7962 57.6435 25.5913C57.7271 25.8034 57.7689 26.0286 57.7689 26.2407C57.7689 27.049 57.2253 27.8044 56.375 28.0827C55.441 28.3875 54.5209 28.5465 53.6427 28.5465C52.0396 28.5465 50.5759 28.0429 49.4886 27.1285C47.8298 25.7106 47.1467 23.6301 47.1467 21.523C47.1467 17.6322 49.95 14.6996 53.2474 14.6721C53.2485 14.672 53.2487 14.6722 53.2487 14.6722L53.2942 14.6719ZM52.755 16.9206L52.0516 17.9187L50.8785 17.8893C50.6841 17.8847 50.5211 18.046 50.5144 18.2463C50.5108 18.3277 50.5325 18.4062 50.5781 18.4703L51.2588 19.468L50.8524 20.6345C50.7872 20.8244 50.8782 21.0346 51.0618 21.1008C51.135 21.1288 51.2132 21.1277 51.2849 21.1032L52.4059 20.7203L53.3294 21.4664C53.4815 21.5904 53.7001 21.5584 53.8206 21.397C53.867 21.3343 53.8954 21.2535 53.8949 21.1751L53.9124 19.9395L54.8907 19.2365C55.053 19.1198 55.0929 18.8918 54.9869 18.7275C54.9454 18.6604 54.8829 18.612 54.809 18.5877L53.6933 18.2104L53.3711 17.03C53.3341 16.8966 53.231 16.7962 53.1002 16.773C52.9694 16.7497 52.8351 16.8079 52.755 16.9206Z" fill="white"/>
<path d="M16.9754 14.6717C18.1182 14.6717 19.0494 15.5397 19.0494 16.6214L19.0353 16.7816C18.9365 18.2639 18.8942 19.8797 18.8942 21.4822C18.8942 23.2181 18.9506 24.9274 19.0353 26.4631L19.0494 26.61C19.0494 27.6249 18.2029 28.4929 17.0883 28.5463H16.9613C15.875 28.5463 14.958 27.7451 14.9015 26.6901C14.8028 25.0743 14.7463 23.2983 14.7463 21.4955C14.7463 19.8129 14.8028 18.117 14.9015 16.5145C14.958 15.513 15.8045 14.7118 16.8767 14.6717H16.9754ZM17.0344 9.17969C18.1447 9.17969 19.0494 10.0774 19.0494 11.1962C19.0494 12.3149 18.1447 13.2264 17.0344 13.2264C15.9242 13.2264 15.0332 12.3149 15.0332 11.1962C15.0332 11.0986 15.04 11.0028 15.0531 10.9091L15.0332 10.914L15.0596 10.8656C15.2149 9.90572 16.036 9.17969 17.0344 9.17969Z" fill="white"/>
<path d="M24.7384 10.3359C25.8858 10.3359 26.8094 11.2203 26.8094 12.2923L26.7954 12.4799C26.7254 13.3241 26.6835 14.1683 26.6415 14.9723H27.621C28.7545 14.9723 29.6781 15.8567 29.6781 16.9421C29.6781 18.0275 28.7685 18.8984 27.649 18.8984H26.5295C26.5155 19.5148 26.5155 20.091 26.5155 20.6136L26.5156 20.7079C26.5169 22.6173 26.5598 24.0516 26.6975 24.513C26.7254 24.58 26.7254 24.58 26.7254 24.6068C26.7814 24.6068 26.8794 24.6202 27.0613 24.6202H27.0893C28.2228 24.6202 29.1463 25.5046 29.1463 26.59C29.1463 27.6754 28.2368 28.5463 27.1173 28.5463H27.0613C26.0957 28.5463 25.1162 28.3587 24.2906 27.796C23.4649 27.2198 22.9892 26.3756 22.7653 25.5984C22.4574 24.58 22.4014 23.5884 22.4014 22.4762L22.4154 20.6136C22.4154 20.091 22.4154 19.5148 22.4294 18.8984H21.9536C20.8341 18.8984 19.9246 18.0275 19.9246 16.9421C19.9246 15.8567 20.8481 14.9723 21.9816 14.9723H22.5274C22.5693 14.0745 22.6253 13.1365 22.7093 12.1851C22.7653 11.1801 23.6189 10.3761 24.6684 10.3359H24.7384Z" fill="white"/>
<path d="M35.8133 10.3564C36.958 10.4371 37.8181 11.3842 37.7439 12.4536L37.7169 12.6398C37.5887 13.477 37.4884 14.3162 37.3908 15.1152L38.368 15.1841C39.4987 15.2638 40.3588 16.2109 40.2837 17.2937C40.2085 18.3764 39.2409 19.1813 38.1241 19.1027L37.0073 19.024C36.9507 19.6379 36.9108 20.2127 36.8746 20.734L36.8659 20.8606C36.7367 22.7492 36.6814 24.1693 36.7862 24.6366C36.8094 24.7054 36.8094 24.7054 36.8076 24.7322C36.8634 24.7361 36.9602 24.7564 37.1417 24.7691L37.1696 24.7711C38.3003 24.8508 39.1604 25.7979 39.0853 26.8807C39.0102 27.9634 38.0425 28.7684 36.9257 28.6897L36.8699 28.6857C35.9067 28.6179 34.9425 28.3619 34.1579 27.7424C33.3741 27.1096 32.958 26.234 32.7884 25.443C32.5518 24.4054 32.5646 23.4123 32.6416 22.3029L32.7845 20.4458C32.8207 19.9245 32.8606 19.3497 32.9172 18.7358L32.4426 18.7023C31.3258 18.6237 30.4788 17.6908 30.5539 16.6081C30.629 15.5254 31.6116 14.708 32.7423 14.7877L33.2867 14.8261C33.3908 13.9334 33.5115 13.0016 33.6612 12.0585C33.7866 11.0599 34.6938 10.3178 35.7435 10.3515L35.8133 10.3564Z" fill="white"/>
<path d="M43.9108 9.18469C45.0517 9.14454 45.9717 10.0509 46.0074 11.0823L46.0111 11.1894C45.9958 13.1882 45.8642 15.9018 45.8547 18.4769C45.8568 20.1666 45.8102 20.4499 45.872 22.2313C45.91 23.3297 46.0331 24.4384 46.444 25.3091C46.6711 25.757 46.8001 26.2219 46.8149 26.6505L46.8177 26.7308C46.8081 27.2676 46.613 27.7439 46.1457 28.0956C45.7747 28.3768 45.3422 28.5127 44.9055 28.5281L44.8492 28.5301C44.2425 28.5246 43.6276 28.278 43.2291 27.769C42.2882 26.6622 42.1656 25.5669 41.9933 24.2587C41.8509 23.4054 41.7907 22.4822 41.7564 21.491L41.7302 19.9229C41.6988 16.169 41.8726 13.8563 41.8783 11.1739C41.8412 10.1024 42.7839 9.22434 43.8544 9.18667L43.9108 9.18469Z" fill="white"/>
<path d="M71.3533 9.18018C72.4259 9.18018 73.3151 9.96348 73.3998 11.0034C73.5409 12.543 73.6115 15.0145 73.6115 17.702C73.6115 20.7812 73.5268 24.1441 73.3574 26.6966C73.301 27.6014 72.5953 28.3577 71.6638 28.5198C71.5368 28.5333 71.4239 28.5468 71.2968 28.5468C70.4924 28.5468 69.7443 28.1011 69.4056 27.3853C68.0789 24.5492 66.7522 21.7266 65.4255 19.0391V19.5793C65.4255 21.9967 65.5102 24.4007 65.7219 26.3454L65.736 26.5615C65.736 27.5609 64.9316 28.4253 63.8589 28.5333H63.6613C62.6028 28.5333 61.6995 27.7635 61.6007 26.7371C61.3749 24.5357 61.2761 21.9697 61.2761 19.4172C61.2761 16.392 61.4173 13.3938 61.6431 11.0844C61.7074 10.4283 62.1133 9.86549 62.6941 9.55566L62.733 9.46923L62.8766 9.46912C63.0091 9.41379 63.1489 9.37096 63.2944 9.34224C63.4355 9.31523 63.5767 9.30172 63.7037 9.30172C64.4517 9.30172 65.1574 9.69338 65.5243 10.3416C66.851 12.6645 68.1495 15.2441 69.4621 17.9181C69.4621 15.163 69.4056 12.651 69.2786 11.3545L69.2645 11.1384C69.2645 10.0715 70.1819 9.18018 71.3251 9.18018H71.3533Z" fill="white"/>
<path d="M80.9087 14.6825C82.8316 14.7501 84.5372 15.8904 85.3325 17.3187C86.1283 18.7336 86.2814 20.3127 86.2269 21.8845C86.1678 23.5894 85.6827 25.1994 84.6553 26.4702C83.6279 27.741 81.9222 28.6012 80.0824 28.5364C78.201 28.4702 76.5641 27.3457 75.754 25.9436C74.9435 24.5548 74.7079 22.9595 74.7642 21.3344C74.8215 19.6827 75.2088 18.096 76.2238 16.7848C77.2388 15.4735 78.9998 14.6153 80.9087 14.6825ZM80.6767 18.5818C79.4178 18.5375 78.8667 20.0518 78.8174 21.477C78.7675 22.9156 79.1801 24.5972 80.3006 24.6366C81.4889 24.6784 82.0928 23.2696 82.1577 21.798L82.1599 21.7413L82.1622 21.6747C82.213 20.2095 81.811 18.6217 80.6767 18.5818Z" fill="white"/>
<path d="M93.0452 14.6657C94.968 14.598 96.7484 15.6156 97.6407 16.9845C98.5326 18.3401 98.7945 19.9046 98.849 21.4764C98.9081 23.1813 98.5356 24.8214 97.5987 26.1614C96.6617 27.5013 95.0198 28.4793 93.1799 28.544C91.2986 28.6102 89.5879 27.6035 88.6827 26.2617C87.7779 24.9332 87.4325 23.3584 87.3762 21.7333C87.3189 20.0817 87.5955 18.4716 88.5172 17.0922C89.4389 15.7128 91.1362 14.7329 93.0452 14.6657ZM93.0836 18.5719C91.8248 18.6162 91.3799 20.1655 91.4293 21.5907C91.4792 23.0293 92.0072 24.6777 93.1277 24.6383C94.3159 24.5965 94.8209 23.1487 94.7837 21.6761L94.782 21.6195L94.7797 21.5529C94.7289 20.0877 94.218 18.532 93.0836 18.5719Z" fill="white"/>
<path d="M102.126 14.8956C102.809 14.8475 103.472 15.1212 103.885 15.626C104.461 15.2517 105.195 14.933 106.058 14.8722C107.981 14.7367 109.532 15.4951 110.398 16.8889C110.54 17.1192 110.629 17.3932 110.649 17.6721C110.699 18.4027 110.319 19.177 109.591 19.5753C109.306 19.7155 109.018 19.8025 108.726 19.8232C107.974 19.8762 107.235 19.5277 106.87 18.8995C106.771 18.666 106.476 18.6169 106.322 18.6277C105.779 18.666 105.106 19.0849 104.776 19.5753C104.46 20.0648 104.46 20.5731 104.388 21.2634L104.477 22.752C104.579 24.2264 104.718 25.6182 104.837 26.5308L104.861 26.6759C104.932 27.6854 104.155 28.5944 103.073 28.7374L102.947 28.7463C101.86 28.8228 100.9 28.0897 100.772 27.0575C100.627 25.9732 100.482 24.4885 100.372 22.9078C100.223 20.756 100.146 18.4389 100.227 16.7913C100.256 15.7882 101.081 14.9693 102.126 14.8956Z" fill="white"/>
<path fill-rule="evenodd" clip-rule="evenodd" d="M98.5482 11.1729L98.4675 11.1956L98.3957 11.2191L96.7951 11.7809L96.7547 11.7572C96.7031 11.7286 96.6496 11.7025 96.5942 11.6791L96.5096 11.6459L96.422 11.6168L96.3368 11.5938L96.2681 11.5787L95.822 11.4909C95.68 11.463 95.5363 11.4539 95.3911 11.464L95.3039 11.4724L95.2591 11.4791L93.9817 10.3505C93.5722 9.98853 93.0335 9.83374 92.4984 9.92075L92.422 9.93483L92.3457 9.95222L92.2646 9.97496L92.1928 9.99841C91.6285 10.1964 91.2039 10.6544 91.0421 11.2375L91.024 11.3081L91.0089 11.3788L90.5427 13.8071C90.4192 14.4505 90.6405 15.1037 91.1295 15.5359C91.4851 15.8503 91.9374 16.0078 92.3989 15.9876L92.4804 15.9822L92.5324 15.9765L92.5542 16.0273L92.5808 16.0788L92.5956 16.105L92.6301 16.1606L93.4162 17.3466C93.5742 17.5849 93.8144 17.754 94.1107 17.8273C94.2778 17.859 94.4217 17.8698 94.5492 17.8518L94.6029 17.8423L94.6211 17.8374L94.6224 17.9263C94.6266 18.1672 94.7064 18.3991 94.84 18.5812L94.8778 18.6296L94.9181 18.6754C94.9948 18.7656 95.0886 18.8408 95.197 18.901C95.2986 18.9575 95.4097 18.999 95.5405 19.0285C95.7417 19.0681 95.9492 19.0519 96.1511 18.9779L96.2182 18.9511L96.2815 18.9205L97.5536 18.2523C97.9306 18.0546 98.1588 17.6656 98.16 17.2432L98.158 17.1718L98.21 17.1824C98.4044 17.2169 98.6055 17.2194 98.8061 17.1878L98.8921 17.1722L98.9684 17.1549L99.0495 17.1321L99.1214 17.1087C99.6857 16.9106 100.11 16.4527 100.272 15.8695L100.29 15.799L100.305 15.7282L100.771 13.3C100.895 12.6565 100.674 12.0034 100.184 11.5709C99.7325 11.1716 99.1247 11.0255 98.5482 11.1729Z" fill="black"/>
<path d="M93.4822 10.9188C93.2628 10.7251 92.9813 10.6316 92.6952 10.6565L92.6278 10.6646L92.5622 10.6768L92.4976 10.693L92.4363 10.7124C92.1165 10.8242 91.8733 11.0767 91.7712 11.4027L91.754 11.4641L91.7408 11.5238L91.2763 13.9499C91.2036 14.33 91.3333 14.7121 91.6218 14.9668C91.876 15.1913 92.212 15.2799 92.5413 15.2089L92.6064 15.1926L92.6677 15.1733L93.6563 14.8274L93.2783 15.2781C93.2184 15.3496 93.1871 15.4399 93.189 15.5347L93.1918 15.5755L93.2002 15.6204L93.2141 15.6649L93.2327 15.7063L93.2532 15.7411L94.0406 16.9269C94.12 17.0465 94.2587 17.1121 94.4 17.0968C94.5102 17.085 94.6091 17.0259 94.6745 16.9316L94.6966 16.8953L94.7138 16.8584L95.3291 15.3214L95.3744 17.9133C95.3755 17.9741 95.3908 18.0333 95.42 18.0883L95.4392 18.1207L95.4653 18.1557L95.4957 18.1882L95.5287 18.2161L95.5602 18.2375C95.5986 18.2609 95.6407 18.2773 95.6847 18.2859C95.7414 18.2971 95.7995 18.2952 95.8588 18.2794L95.9006 18.2654L95.9347 18.2497L97.2073 17.5828C97.3396 17.5136 97.4189 17.3736 97.412 17.2204L97.4077 17.1792L97.3996 17.1413L96.9355 15.4029L97.8283 16.1918C98.033 16.3725 98.2919 16.466 98.5595 16.4572L98.617 16.4538L98.6826 16.4459L98.7483 16.4338L98.8129 16.4176L98.8742 16.3982C99.194 16.2863 99.4372 16.0338 99.5393 15.7078L99.5565 15.6464L99.5697 15.5867L100.034 13.1606C100.107 12.7805 99.9772 12.3985 99.6886 12.1436C99.4344 11.9193 99.0985 11.8307 98.7701 11.9014L98.704 11.9179L98.6428 11.9373L96.6481 12.6347L96.6422 12.6276C96.5751 12.5489 96.4957 12.4823 96.4061 12.4299L96.3511 12.4001L96.2947 12.3745L96.2362 12.3526L96.1764 12.3348L96.1232 12.3226L95.6768 12.2345C95.4943 12.1984 95.3067 12.2194 95.1348 12.2951L95.0748 12.3245L93.4822 10.9188ZM96.0569 14.7137L96.1085 14.742L96.7336 17.081L96.7134 17.1274L95.9955 17.5033L95.9474 14.7757L95.9789 14.7356L96.0028 14.7302L96.0274 14.7233L96.0569 14.7137ZM94.8405 14.4625C94.8656 14.486 94.8916 14.5071 94.9197 14.5268L94.9307 14.5339L94.9465 14.5833L94.3045 16.1872L93.8948 15.5705L93.8974 15.5219L94.7821 14.466L94.8405 14.4625ZM99.072 12.5183L99.1179 12.5297C99.1752 12.5477 99.2287 12.578 99.2756 12.6195C99.3838 12.715 99.4376 12.8523 99.4236 12.996L99.4177 13.0371L98.9529 15.465L98.9428 15.5073C98.903 15.6452 98.8027 15.7524 98.6667 15.8C98.5333 15.8466 98.3919 15.8266 98.278 15.7452L98.2429 15.7174L96.4647 14.1473L96.7198 14.2409L96.7917 14.2654C97.1224 14.3733 97.3865 14.391 97.5858 14.31L97.6282 14.2908L97.6692 14.268C97.788 14.1943 97.8675 14.076 97.8957 13.929C97.9273 13.7638 97.8849 13.6103 97.7754 13.4952C97.6347 13.3472 97.4025 13.2716 97.0775 13.26L96.8007 13.2521L98.8503 12.5355L98.8947 12.5225C98.9394 12.5119 98.9848 12.5084 99.0297 12.5123L99.072 12.5183ZM92.6438 11.3105C92.7805 11.2627 92.9255 11.285 93.0408 11.3714L93.0679 11.3934L94.7059 12.8393L94.4459 12.7406L94.376 12.7161C94.1236 12.6324 93.9163 12.618 93.7515 12.6774L93.711 12.6939L93.6732 12.713C93.5515 12.7816 93.4695 12.8996 93.4408 13.0497C93.4095 13.2131 93.4502 13.3678 93.5564 13.4882C93.7176 13.671 94.0049 13.7662 94.4165 13.7862L94.6892 13.7953L92.4603 14.575L92.4156 14.5881C92.2958 14.6165 92.1728 14.5926 92.0715 14.5202L92.0365 14.4924L92.0053 14.4621C91.9166 14.368 91.8743 14.2438 91.8869 14.1145L91.8928 14.0734L92.3576 11.6455L92.3677 11.6032C92.4075 11.4653 92.5078 11.3581 92.6438 11.3105ZM95.5451 12.9358L95.9891 13.0235C96.045 13.0345 96.0933 13.0687 96.1231 13.1163L96.1364 13.1412L96.1375 13.1514L96.1446 13.1892C96.149 13.2065 96.1514 13.2237 96.1521 13.2401L96.1516 13.264L96.148 13.2915L96.0148 13.9872C96.0115 14.0041 96.0066 14.0202 96.0001 14.0353L95.9893 14.057L95.9551 14.11L95.9528 14.1177L95.9498 14.121C95.9145 14.155 95.8692 14.1752 95.8237 14.1788L95.7964 14.179L95.7571 14.1731L95.3221 14.0872C95.266 14.0761 95.2176 14.0417 95.188 13.9945L95.1749 13.97L95.1746 13.9719L95.1707 13.9438L95.1657 13.9205C95.1614 13.9034 95.159 13.8864 95.1584 13.8703L95.1588 13.8471L95.1613 13.8305L95.1633 13.8121L95.1639 13.8124L95.2957 13.1233C95.299 13.1064 95.3039 13.0903 95.3104 13.0753L95.321 13.0538L95.3476 13.0135L95.3584 12.9951L95.357 12.9945L95.3609 12.9901C95.3962 12.9559 95.4416 12.9356 95.4877 12.932L95.5154 12.9318L95.5451 12.9358Z" fill="white"/>
<path d="M76.0045 16.575C75.4265 15.6393 75.2457 14.5237 75.4954 13.4421L75.5217 13.3335C75.9169 11.7844 77.0513 10.5162 78.5245 9.9469L78.5865 9.9237L78.5334 9.94888C79.0913 9.66837 79.85 9.73777 80.3859 10.0399L80.4345 10.0684C81.1646 10.5136 81.2675 11.3673 80.6649 11.9159L80.6121 11.9616L80.6995 11.9856C81.4212 12.1974 82.0345 12.665 82.4354 13.3138C82.8713 14.0194 83.0077 14.8613 82.8197 15.6759C82.6049 16.6066 82.0441 17.4054 81.2448 17.9195C80.4432 18.4349 79.4894 18.6074 78.5675 18.4021C77.534 18.1721 76.647 17.5573 76.0656 16.671L76.0045 16.575Z" fill="black"/>
<path d="M76.8669 16.2023C77.3525 16.8541 78.0617 17.2714 78.8639 17.3772C79.5274 17.4647 80.1883 17.2841 80.7248 16.8686C81.2613 16.4531 81.6092 15.8525 81.7044 15.1774C81.7838 14.6151 81.6432 14.0581 81.3085 13.609C80.9738 13.1599 80.4851 12.8724 79.9326 12.7995C78.975 12.6733 78.0841 13.3632 77.9466 14.3376C77.8902 14.7374 77.9902 15.1335 78.2282 15.4529C78.3646 15.6361 78.6233 15.6702 78.8056 15.529C78.9772 15.396 79.0202 15.1552 78.9108 14.9745L78.8885 14.9414C78.7827 14.7993 78.7381 14.6232 78.7633 14.4453C78.7985 14.1952 78.9274 13.9727 79.1261 13.8189C79.3249 13.6649 79.5696 13.598 79.8154 13.6304C80.1498 13.6746 80.4455 13.8485 80.6482 14.1204C80.8507 14.3922 80.9358 14.7293 80.8877 15.0696C80.8239 15.5228 80.5903 15.926 80.2302 16.2048C79.8701 16.4837 79.4265 16.605 78.9812 16.5462C78.3972 16.4693 77.8809 16.1654 77.5273 15.6909C77.1736 15.2163 77.0251 14.6277 77.1089 14.0335C77.2822 12.8055 78.5894 12.0198 79.4103 11.5566C80.2312 11.0934 79.0024 10.6657 78.4645 10.9981C77.3212 11.5276 76.4751 12.629 76.2921 13.9258C76.177 14.7419 76.3811 15.5504 76.8669 16.2023Z" fill="white"/>
</g>
<defs>
<clipPath id="clip0_2383_1297">
<rect width="113.6" height="26" fill="white" transform="translate(0 6)"/>
</clipPath>
</defs>
</svg>
